# xmcd CD database file
#
# Track frame offsets:
#	150
#	14925
#	28307
#	41156
#	58491
#	76871
#	99332
#	121151
#	141623
#	156110
#	178687
#	198564
#	211649
#	224667
#	239908
#	254259
#	274447
#	284715
#
# Disc length: 4008 seconds
#
# Revision: 0
# Processed by: cddbd v1.5.2PL0 Copyright (c) Steve Scherf et al.
# Submitted via: CDex 1.70beta2
#
DISCID=2d0fa612
DTITLE=Eliane Elias - Something for You
DYEAR=2007
DGENRE=Jazz
TTITLE0=You And The Night And The Music
TTITLE1=Here Is Something For You
TTITLE2=A Sleepin' Bee
TTITLE3=But Not For Me
TTITLE4=Waltz For Debby
TTITLE5=Five
TTITLE6=Blue In Green
TTITLE7=Detour Ahead
TTITLE8=Minha(All Mine)
TTITLE9=My Foolish Heart
TTITLE10=But Beautiful/Here's That Rainy Day
TTITLE11=I Love My Wife
TTITLE12=For Nenette
TTITLE13=Evanesque
TTITLE14=Solar
TTITLE15=After All
TTITLE16=Introduction To Here Is Something For You
TTITLE17=Re: Person I Knew
EXTD=YEAR: 2007
EXTT0=
EXTT1=
EXTT2=
EXTT3=
EXTT4=
EXTT5=
EXTT6=
EXTT7=
EXTT8=
EXTT9=
EXTT10=
EXTT11=
EXTT12=
EXTT13=
EXTT14=
EXTT15=
EXTT16=
EXTT17=
PLAYORDER=
